<svg width="27" height="27" viewBox="0 0 27 27" fill="none" xmlns="http://www.w3.org/2000/svg">
<path d="M7.71428 15.4287C8.77938 15.4287 9.64285 14.5652 9.64285 13.5001C9.64285 12.4351 8.77938 11.5715 7.71428 11.5715C6.64917 11.5715 5.78571 12.4351 5.78571 13.5001C5.78571 14.5652 6.64917 15.4287 7.71428 15.4287Z" fill="#ABA4A3"/>
<path d="M13.5 15.4287C14.5651 15.4287 15.4286 14.5652 15.4286 13.5001C15.4286 12.4351 14.5651 11.5715 13.5 11.5715C12.4349 11.5715 11.5714 12.4351 11.5714 13.5001C11.5714 14.5652 12.4349 15.4287 13.5 15.4287Z" fill="#ABA4A3"/>
<path d="M21.2143 13.5001C21.2143 14.5652 20.3508 15.4287 19.2857 15.4287C18.2206 15.4287 17.3571 14.5652 17.3571 13.5001C17.3571 12.4351 18.2206 11.5715 19.2857 11.5715C20.3508 11.5715 21.2143 12.4351 21.2143 13.5001Z" fill="#ABA4A3"/>
</svg>
